<svg id="Layer_1" data-name="Layer 1" xmlns="http://www.w3.org/2000/svg" width="572" height="432" viewBox="0 0 572 432"><defs><style>.cls-1{fill:#5ec1f0;}.cls-2{fill:#fd5a39;}.cls-3,.cls-7{fill:#fdfdfd;}.cls-3{opacity:0.24;}.cls-4{fill:#ff8d7c;}.cls-5{fill:#e5e5e5;}.cls-6{fill:#eaeaea;}.cls-8{fill:#008ece;}.cls-9{fill:none;stroke:#fff;stroke-miterlimit:10;stroke-width:1.82px;}.cls-10{fill:#fdfcfd;}.cls-11{fill:#e6ecfc;}.cls-12{fill:#005184;}.cls-13{opacity:0.21;}.cls-14{fill:#fff;}.cls-15{fill:#c6d4f9;}.cls-16{fill:#a8bef5;}.cls-17{fill:#086a92;}.cls-18{fill:#4c8cca;}.cls-19{fill:#0b6b92;}.cls-20{fill:#ee5b3d;}</style></defs><title>contact us</title><path class="cls-1" d="M425.3,384.54A187.46,187.46,0,0,0,475.16,257C475.16,153,390.91,68.78,287,68.78S98.79,153,98.79,257a187.46,187.46,0,0,0,49.86,127.57Z"/><path class="cls-2" d="M450.15,388H123.8L123,386.9a207.58,207.58,0,0,1,310.78-274A207.56,207.56,0,0,1,451,386.9Zm-323.67-5.47h321a200.06,200.06,0,0,0,41.62-122.84c0-111.44-90.67-202.11-202.11-202.11S84.86,148.21,84.86,259.65A200.06,200.06,0,0,0,126.48,382.49Z"/><circle class="cls-3" cx="481.48" cy="169.84" r="13.08"/><circle class="cls-3" cx="353.37" cy="60.41" r="15.38" transform="translate(213.39 390.45) rotate(-76.72)"/><rect class="cls-4" x="59.27" y="382.19" width="454.06" height="8.22"/><polygon class="cls-5" points="327.03 378.84 247.7 378.84 252.26 345.11 322.47 345.11 327.03 378.84"/><rect class="cls-5" x="137.8" y="127.19" width="298.34" height="219.74" rx="5.29"/><path class="cls-6" d="M430.86,347.84H143.09a6.21,6.21,0,0,1-6.2-6.2V132.48a6.21,6.21,0,0,1,6.2-6.2H430.86a6.21,6.21,0,0,1,6.2,6.2V341.64A6.21,6.21,0,0,1,430.86,347.84ZM143.09,128.11a4.37,4.37,0,0,0-4.37,4.37V341.64a4.38,4.38,0,0,0,4.37,4.38H430.86a4.38,4.38,0,0,0,4.37-4.38V132.48a4.37,4.37,0,0,0-4.37-4.37Z"/><path class="cls-7" d="M137.8,315.93v25.71a5.29,5.29,0,0,0,5.29,5.29H430.86a5.29,5.29,0,0,0,5.29-5.29V315.93Z"/><rect class="cls-8" x="147.41" y="137.22" width="278.09" height="168.68"/><path class="cls-7" d="M334.32,382.19H237.67a9.12,9.12,0,0,1,9.12-9.12H325.2a9.12,9.12,0,0,1,9.12,9.12Z"/><circle class="cls-9" cx="287.37" cy="132.52" r="2.13"/><circle class="cls-3" cx="81.26" cy="221.17" r="25.2" transform="translate(-152.74 248.78) rotate(-76.56)"/><circle class="cls-3" cx="12.6" cy="330.76" r="12.6"/><circle class="cls-3" cx="563.43" cy="208.89" r="8.57"/><circle class="cls-4" cx="28.64" cy="182.91" r="9.49"/><path class="cls-4" d="M392.92,228.72h0a2.05,2.05,0,0,1-2.05,2.05h-8.19a2,2,0,0,0-1.34,3.6l10.87,9.4a2,2,0,0,1,.71,1.55v36.43A2.05,2.05,0,0,0,395,283.8h57.29a2.05,2.05,0,0,0,2.06-2.05v-53a2,2,0,0,0-2.06-2.05H395A2,2,0,0,0,392.92,228.72Z"/><path class="cls-7" d="M419.88,271.11a3.36,3.36,0,0,1,3.39-3.56,3.3,3.3,0,0,1,3.39,3.56,3.34,3.34,0,0,1-3.39,3.57A3.37,3.37,0,0,1,419.88,271.11Zm1.43-8.22-.8-27.6H426l-.81,27.6Z"/><rect class="cls-10" x="266.97" y="174.41" width="30.14" height="34.48"/><rect class="cls-11" x="266.97" y="174.41" width="30.14" height="23.38"/><circle class="cls-12" cx="282.04" cy="78.8" r="25.71" transform="translate(140.55 335.19) rotate(-76.72)"/><path class="cls-12" d="M312.81,172.72c-38.61,1.18-21.8-1.29-60.41-.1l-12.79-35.87C228.94,106.81,250.18,74.56,282,73.54c.54,0,1.09,0,1.63,0h0c1.08,0,2.15,0,3.22.1,31.25,2,49.78,35.81,35.63,63.75C316.49,149.12,310.76,163.59,312.81,172.72Z"/><path class="cls-7" d="M282.65,189.86h0c-7.8,0-14.92-3.32-20.86-8a48.23,48.23,0,0,1-18.12-36.23l-.24-6.35c-.88-23.49,16.94-43,39.22-43h0c22.29,0,40.11,19.54,39.23,43l-.19,5a51.81,51.81,0,0,1-14,33.81C301.36,184.82,293.06,189.86,282.65,189.86Z"/><path class="cls-12" d="M252.88,129.32S263.22,125,268.69,127a1.63,1.63,0,0,0,2.3-1.33h0a1.52,1.52,0,0,0-1.43-1.45C266,123.8,257,123.43,252.88,129.32Z"/><path class="cls-12" d="M313.7,129.32S303.36,125,297.89,127a1.63,1.63,0,0,1-2.3-1.33h0a1.53,1.53,0,0,1,1.44-1.45C300.54,123.8,309.62,123.43,313.7,129.32Z"/><g class="cls-13"><circle class="cls-7" cx="371.57" cy="140.52" r="3.22"/><circle class="cls-7" cx="382.45" cy="140.52" r="3.22"/><circle class="cls-7" cx="393.34" cy="140.52" r="3.22"/><circle class="cls-7" cx="404.22" cy="140.52" r="3.22"/><circle class="cls-7" cx="415.11" cy="140.52" r="3.22"/><circle class="cls-7" cx="371.57" cy="151.36" r="3.22"/><circle class="cls-7" cx="382.45" cy="151.36" r="3.22"/><circle class="cls-7" cx="393.34" cy="151.36" r="3.22"/><circle class="cls-7" cx="404.22" cy="151.36" r="3.22"/><circle class="cls-7" cx="415.11" cy="151.36" r="3.22"/><circle class="cls-7" cx="371.57" cy="162.2" r="3.22"/><circle class="cls-7" cx="382.45" cy="162.2" r="3.22"/><circle class="cls-7" cx="393.34" cy="162.2" r="3.22"/><circle class="cls-7" cx="404.22" cy="162.2" r="3.22"/><circle class="cls-7" cx="415.11" cy="162.2" r="3.22"/><path class="cls-7" d="M374.79,173a3.23,3.23,0,1,1-3.22-3.22A3.22,3.22,0,0,1,374.79,173Z"/><path class="cls-7" d="M385.67,173a3.22,3.22,0,1,1-3.22-3.22A3.22,3.22,0,0,1,385.67,173Z"/><path class="cls-7" d="M396.56,173a3.22,3.22,0,1,1-3.22-3.22A3.22,3.22,0,0,1,396.56,173Z"/><path class="cls-7" d="M407.44,173a3.22,3.22,0,1,1-3.22-3.22A3.22,3.22,0,0,1,407.44,173Z"/><path class="cls-7" d="M418.33,173a3.22,3.22,0,1,1-3.22-3.22A3.22,3.22,0,0,1,418.33,173Z"/><circle class="cls-7" cx="371.57" cy="183.88" r="3.22"/><circle class="cls-7" cx="382.45" cy="183.88" r="3.22"/><circle class="cls-7" cx="393.34" cy="183.88" r="3.22"/><circle class="cls-7" cx="404.22" cy="183.88" r="3.22"/><circle class="cls-7" cx="415.11" cy="183.88" r="3.22"/><circle class="cls-7" cx="371.57" cy="194.72" r="3.22"/><circle class="cls-7" cx="382.45" cy="194.72" r="3.22"/><circle class="cls-7" cx="393.34" cy="194.72" r="3.22"/><circle class="cls-7" cx="404.22" cy="194.72" r="3.22"/><circle class="cls-7" cx="415.11" cy="194.72" r="3.22"/><circle class="cls-7" cx="371.57" cy="205.56" r="3.22"/><circle class="cls-7" cx="382.45" cy="205.56" r="3.22"/><circle class="cls-7" cx="393.34" cy="205.56" r="3.22"/><circle class="cls-7" cx="404.22" cy="205.56" r="3.22"/><circle class="cls-7" cx="415.11" cy="205.56" r="3.22"/><circle class="cls-7" cx="371.57" cy="216.4" r="3.22"/><circle class="cls-7" cx="382.45" cy="216.4" r="3.22"/><circle class="cls-7" cx="393.34" cy="216.4" r="3.22"/><circle class="cls-7" cx="404.22" cy="216.4" r="3.22"/><circle class="cls-7" cx="415.11" cy="216.4" r="3.22"/><circle class="cls-7" cx="371.57" cy="227.25" r="3.22"/><circle class="cls-7" cx="382.45" cy="227.25" r="3.22"/><circle class="cls-7" cx="393.34" cy="227.25" r="3.22"/><circle class="cls-7" cx="404.22" cy="227.25" r="3.22"/><circle class="cls-7" cx="415.11" cy="227.25" r="3.22"/><circle class="cls-7" cx="371.57" cy="238.09" r="3.22"/><circle class="cls-7" cx="382.45" cy="238.09" r="3.22"/><circle class="cls-7" cx="393.34" cy="238.09" r="3.22"/><circle class="cls-7" cx="404.22" cy="238.09" r="3.22"/><circle class="cls-7" cx="415.11" cy="238.09" r="3.22"/><circle class="cls-7" cx="371.57" cy="248.93" r="3.22"/><circle class="cls-7" cx="382.45" cy="248.93" r="3.22"/><circle class="cls-7" cx="393.34" cy="248.93" r="3.22"/><circle class="cls-7" cx="404.22" cy="248.93" r="3.22"/><circle class="cls-7" cx="415.11" cy="248.93" r="3.22"/><circle class="cls-7" cx="371.57" cy="259.77" r="3.22"/><circle class="cls-7" cx="382.45" cy="259.77" r="3.22"/><circle class="cls-7" cx="393.34" cy="259.77" r="3.22"/><circle class="cls-7" cx="404.22" cy="259.77" r="3.22"/><circle class="cls-7" cx="415.11" cy="259.77" r="3.22"/><circle class="cls-7" cx="371.57" cy="270.61" r="3.22"/><circle class="cls-7" cx="382.45" cy="270.61" r="3.22"/><circle class="cls-7" cx="393.34" cy="270.61" r="3.22"/><circle class="cls-7" cx="404.22" cy="270.61" r="3.22"/><circle class="cls-7" cx="415.11" cy="270.61" r="3.22"/><circle class="cls-7" cx="263.94" cy="140.52" r="3.22"/><circle class="cls-7" cx="274.83" cy="140.52" r="3.22"/><circle class="cls-7" cx="285.71" cy="140.52" r="3.22"/><circle class="cls-7" cx="296.6" cy="140.52" r="3.22"/><circle class="cls-7" cx="307.48" cy="140.52" r="3.22"/><circle class="cls-7" cx="317.75" cy="140.52" r="3.22"/><circle class="cls-7" cx="328.64" cy="140.52" r="3.22"/><circle class="cls-7" cx="339.52" cy="140.52" r="3.22"/><circle class="cls-7" cx="350.41" cy="140.52" r="3.22"/><circle class="cls-7" cx="361.3" cy="140.52" r="3.22"/><circle class="cls-7" cx="263.94" cy="151.36" r="3.22"/><circle class="cls-7" cx="274.83" cy="151.36" r="3.22"/><circle class="cls-7" cx="285.71" cy="151.36" r="3.22"/><circle class="cls-7" cx="296.6" cy="151.36" r="3.22"/><circle class="cls-7" cx="307.48" cy="151.36" r="3.22"/><circle class="cls-7" cx="317.75" cy="151.36" r="3.22"/><circle class="cls-7" cx="328.64" cy="151.36" r="3.22"/><circle class="cls-7" cx="339.52" cy="151.36" r="3.22"/><circle class="cls-7" cx="350.41" cy="151.36" r="3.22"/><circle class="cls-7" cx="361.3" cy="151.36" r="3.22"/><circle class="cls-7" cx="263.94" cy="162.2" r="3.22"/><circle class="cls-7" cx="274.83" cy="162.2" r="3.22"/><circle class="cls-7" cx="285.71" cy="162.2" r="3.22"/><circle class="cls-7" cx="296.6" cy="162.2" r="3.22"/><circle class="cls-7" cx="307.48" cy="162.2" r="3.22"/><circle class="cls-7" cx="317.75" cy="162.2" r="3.22"/><circle class="cls-7" cx="328.64" cy="162.2" r="3.22"/><circle class="cls-7" cx="339.52" cy="162.2" r="3.22"/><circle class="cls-7" cx="350.41" cy="162.2" r="3.22"/><circle class="cls-7" cx="361.3" cy="162.2" r="3.22"/><path class="cls-7" d="M267.16,173a3.22,3.22,0,1,1-3.22-3.22A3.22,3.22,0,0,1,267.16,173Z"/><path class="cls-7" d="M278.05,173a3.23,3.23,0,1,1-3.22-3.22A3.22,3.22,0,0,1,278.05,173Z"/><path class="cls-7" d="M288.93,173a3.22,3.22,0,1,1-3.22-3.22A3.22,3.22,0,0,1,288.93,173Z"/><path class="cls-7" d="M299.82,173a3.22,3.22,0,1,1-3.22-3.22A3.22,3.22,0,0,1,299.82,173Z"/><path class="cls-7" d="M310.7,173a3.22,3.22,0,1,1-3.22-3.22A3.22,3.22,0,0,1,310.7,173Z"/><path class="cls-7" d="M321,173a3.23,3.23,0,1,1-3.23-3.22A3.23,3.23,0,0,1,321,173Z"/><path class="cls-7" d="M331.86,173a3.22,3.22,0,1,1-3.22-3.22A3.22,3.22,0,0,1,331.86,173Z"/><path class="cls-7" d="M342.75,173a3.23,3.23,0,1,1-3.23-3.22A3.23,3.23,0,0,1,342.75,173Z"/><path class="cls-7" d="M353.63,173a3.22,3.22,0,1,1-3.22-3.22A3.22,3.22,0,0,1,353.63,173Z"/><path class="cls-7" d="M364.52,173a3.23,3.23,0,1,1-3.22-3.22A3.22,3.22,0,0,1,364.52,173Z"/><circle class="cls-7" cx="263.94" cy="183.88" r="3.22"/><circle class="cls-7" cx="274.83" cy="183.88" r="3.22"/><circle class="cls-7" cx="285.71" cy="183.88" r="3.22"/><circle class="cls-7" cx="296.6" cy="183.88" r="3.22"/><circle class="cls-7" cx="307.48" cy="183.88" r="3.22"/><circle class="cls-7" cx="317.75" cy="183.88" r="3.22"/><circle class="cls-7" cx="328.64" cy="183.88" r="3.22"/><circle class="cls-7" cx="339.52" cy="183.88" r="3.22"/><circle class="cls-7" cx="350.41" cy="183.88" r="3.22"/><circle class="cls-7" cx="361.3" cy="183.88" r="3.22"/><circle class="cls-7" cx="263.94" cy="194.72" r="3.22"/><circle class="cls-7" cx="274.83" cy="194.72" r="3.22"/><circle class="cls-7" cx="285.71" cy="194.72" r="3.22"/><circle class="cls-7" cx="296.6" cy="194.72" r="3.22"/><circle class="cls-7" cx="307.48" cy="194.72" r="3.22"/><circle class="cls-7" cx="317.75" cy="194.72" r="3.22"/><circle class="cls-7" cx="328.64" cy="194.72" r="3.22"/><circle class="cls-7" cx="339.52" cy="194.72" r="3.22"/><circle class="cls-7" cx="350.41" cy="194.72" r="3.22"/><circle class="cls-7" cx="361.3" cy="194.72" r="3.22"/><circle class="cls-7" cx="263.94" cy="205.56" r="3.22"/><circle class="cls-7" cx="274.83" cy="205.56" r="3.22"/><circle class="cls-7" cx="285.71" cy="205.56" r="3.22"/><circle class="cls-7" cx="296.6" cy="205.56" r="3.22"/><circle class="cls-7" cx="307.48" cy="205.56" r="3.22"/><circle class="cls-7" cx="317.75" cy="205.56" r="3.22"/><circle class="cls-7" cx="328.64" cy="205.56" r="3.22"/><circle class="cls-7" cx="339.52" cy="205.56" r="3.22"/><circle class="cls-7" cx="350.41" cy="205.56" r="3.22"/><circle class="cls-7" cx="361.3" cy="205.56" r="3.22"/><circle class="cls-7" cx="263.94" cy="216.4" r="3.22"/><circle class="cls-7" cx="274.83" cy="216.4" r="3.22"/><circle class="cls-7" cx="285.71" cy="216.4" r="3.22"/><circle class="cls-7" cx="296.6" cy="216.4" r="3.22"/><circle class="cls-7" cx="307.48" cy="216.4" r="3.22"/><circle class="cls-7" cx="317.75" cy="216.4" r="3.22"/><circle class="cls-7" cx="328.64" cy="216.4" r="3.22"/><circle class="cls-7" cx="339.52" cy="216.4" r="3.22"/><circle class="cls-7" cx="350.41" cy="216.4" r="3.22"/><circle class="cls-7" cx="361.3" cy="216.4" r="3.22"/><circle class="cls-7" cx="263.94" cy="227.25" r="3.22"/><circle class="cls-7" cx="274.83" cy="227.25" r="3.22"/><circle class="cls-7" cx="285.71" cy="227.25" r="3.22"/><circle class="cls-7" cx="296.6" cy="227.25" r="3.22"/><circle class="cls-7" cx="307.48" cy="227.25" r="3.22"/><circle class="cls-7" cx="317.75" cy="227.25" r="3.22"/><circle class="cls-7" cx="328.64" cy="227.25" r="3.22"/><circle class="cls-7" cx="339.52" cy="227.25" r="3.22"/><circle class="cls-7" cx="350.41" cy="227.25" r="3.22"/><circle class="cls-7" cx="361.3" cy="227.25" r="3.22"/><circle class="cls-7" cx="263.94" cy="238.09" r="3.22"/><circle class="cls-7" cx="274.83" cy="238.09" r="3.22"/><circle class="cls-7" cx="285.71" cy="238.09" r="3.22"/><circle class="cls-7" cx="296.6" cy="238.09" r="3.22"/><circle class="cls-7" cx="307.48" cy="238.09" r="3.22"/><circle class="cls-7" cx="317.75" cy="238.09" r="3.22"/><circle class="cls-7" cx="328.64" cy="238.09" r="3.22"/><circle class="cls-7" cx="339.52" cy="238.09" r="3.22"/><circle class="cls-7" cx="350.41" cy="238.09" r="3.22"/><circle class="cls-7" cx="361.3" cy="238.09" r="3.22"/><circle class="cls-7" cx="263.94" cy="248.93" r="3.22"/><circle class="cls-7" cx="274.83" cy="248.93" r="3.22"/><circle class="cls-7" cx="285.71" cy="248.93" r="3.22"/><circle class="cls-7" cx="296.6" cy="248.93" r="3.22"/><circle class="cls-7" cx="307.48" cy="248.93" r="3.22"/><circle class="cls-7" cx="317.75" cy="248.93" r="3.22"/><circle class="cls-7" cx="328.64" cy="248.93" r="3.22"/><circle class="cls-7" cx="339.52" cy="248.93" r="3.22"/><circle class="cls-7" cx="350.41" cy="248.93" r="3.22"/><circle class="cls-7" cx="361.3" cy="248.93" r="3.22"/><circle class="cls-7" cx="263.94" cy="259.77" r="3.22"/><circle class="cls-7" cx="274.83" cy="259.77" r="3.22"/><circle class="cls-7" cx="285.71" cy="259.77" r="3.22"/><circle class="cls-7" cx="296.6" cy="259.77" r="3.22"/><circle class="cls-7" cx="307.48" cy="259.77" r="3.22"/><circle class="cls-7" cx="317.75" cy="259.77" r="3.22"/><circle class="cls-7" cx="328.64" cy="259.77" r="3.22"/><circle class="cls-7" cx="339.52" cy="259.77" r="3.22"/><circle class="cls-7" cx="350.41" cy="259.77" r="3.22"/><circle class="cls-7" cx="361.3" cy="259.77" r="3.22"/><circle class="cls-7" cx="263.94" cy="270.61" r="3.22"/><circle class="cls-7" cx="274.83" cy="270.61" r="3.22"/><circle class="cls-7" cx="285.71" cy="270.61" r="3.22"/><circle class="cls-7" cx="296.6" cy="270.61" r="3.22"/><circle class="cls-7" cx="307.48" cy="270.61" r="3.22"/><circle class="cls-7" cx="317.75" cy="270.61" r="3.22"/><circle class="cls-7" cx="328.64" cy="270.61" r="3.22"/><circle class="cls-7" cx="339.52" cy="270.61" r="3.22"/><circle class="cls-7" cx="350.41" cy="270.61" r="3.22"/><circle class="cls-7" cx="361.3" cy="270.61" r="3.22"/><circle class="cls-7" cx="155.97" cy="140.52" r="3.22"/><circle class="cls-7" cx="166.86" cy="140.52" r="3.22"/><circle class="cls-7" cx="177.75" cy="140.52" r="3.22"/><circle class="cls-7" cx="188.63" cy="140.52" r="3.22"/><circle class="cls-7" cx="199.52" cy="140.52" r="3.22"/><circle class="cls-7" cx="155.97" cy="151.36" r="3.22"/><circle class="cls-7" cx="166.86" cy="151.36" r="3.22"/><circle class="cls-7" cx="177.75" cy="151.36" r="3.22"/><circle class="cls-7" cx="188.63" cy="151.36" r="3.22"/><circle class="cls-7" cx="199.52" cy="151.36" r="3.22"/><circle class="cls-7" cx="155.97" cy="162.2" r="3.22"/><circle class="cls-7" cx="166.86" cy="162.2" r="3.22"/><circle class="cls-7" cx="177.75" cy="162.2" r="3.22"/><circle class="cls-7" cx="188.63" cy="162.2" r="3.22"/><circle class="cls-7" cx="199.52" cy="162.2" r="3.22"/><path class="cls-7" d="M159.2,173a3.23,3.23,0,1,1-3.23-3.22A3.23,3.23,0,0,1,159.2,173Z"/><path class="cls-7" d="M170.08,173a3.22,3.22,0,1,1-3.22-3.22A3.22,3.22,0,0,1,170.08,173Z"/><path class="cls-7" d="M181,173a3.23,3.23,0,1,1-3.22-3.22A3.22,3.22,0,0,1,181,173Z"/><path class="cls-7" d="M191.85,173a3.22,3.22,0,1,1-3.22-3.22A3.22,3.22,0,0,1,191.85,173Z"/><path class="cls-7" d="M202.74,173a3.23,3.23,0,1,1-3.22-3.22A3.22,3.22,0,0,1,202.74,173Z"/><circle class="cls-7" cx="155.97" cy="183.88" r="3.22"/><circle class="cls-7" cx="166.86" cy="183.88" r="3.22"/><circle class="cls-7" cx="177.75" cy="183.88" r="3.22"/><circle class="cls-7" cx="188.63" cy="183.88" r="3.22"/><circle class="cls-7" cx="199.52" cy="183.88" r="3.22"/><circle class="cls-7" cx="155.97" cy="194.72" r="3.22"/><circle class="cls-7" cx="166.86" cy="194.72" r="3.22"/><circle class="cls-7" cx="177.75" cy="194.72" r="3.22"/><circle class="cls-7" cx="188.63" cy="194.72" r="3.22"/><circle class="cls-7" cx="199.52" cy="194.72" r="3.22"/><circle class="cls-7" cx="155.97" cy="205.56" r="3.22"/><circle class="cls-7" cx="166.86" cy="205.56" r="3.22"/><circle class="cls-7" cx="177.75" cy="205.56" r="3.22"/><circle class="cls-7" cx="188.63" cy="205.56" r="3.22"/><circle class="cls-7" cx="199.52" cy="205.56" r="3.22"/><circle class="cls-7" cx="155.97" cy="216.4" r="3.22"/><circle class="cls-7" cx="166.86" cy="216.4" r="3.22"/><circle class="cls-7" cx="177.75" cy="216.4" r="3.22"/><circle class="cls-7" cx="188.63" cy="216.4" r="3.22"/><circle class="cls-7" cx="199.52" cy="216.4" r="3.22"/><circle class="cls-7" cx="155.97" cy="227.25" r="3.22"/><circle class="cls-7" cx="166.86" cy="227.25" r="3.22"/><circle class="cls-7" cx="177.75" cy="227.25" r="3.22"/><circle class="cls-7" cx="188.63" cy="227.25" r="3.22"/><circle class="cls-7" cx="199.52" cy="227.25" r="3.22"/><circle class="cls-7" cx="155.97" cy="238.09" r="3.22"/><circle class="cls-7" cx="166.86" cy="238.09" r="3.22"/><circle class="cls-7" cx="177.75" cy="238.09" r="3.22"/><circle class="cls-7" cx="188.63" cy="238.09" r="3.22"/><circle class="cls-7" cx="199.52" cy="238.09" r="3.22"/><circle class="cls-7" cx="210.13" cy="140.52" r="3.22"/><circle class="cls-7" cx="221.01" cy="140.52" r="3.22"/><circle class="cls-7" cx="231.9" cy="140.52" r="3.22"/><circle class="cls-7" cx="242.78" cy="140.52" r="3.22"/><circle class="cls-7" cx="253.67" cy="140.52" r="3.22"/><circle class="cls-7" cx="210.13" cy="151.36" r="3.22"/><circle class="cls-7" cx="221.01" cy="151.36" r="3.22"/><circle class="cls-7" cx="231.9" cy="151.36" r="3.22"/><circle class="cls-7" cx="242.78" cy="151.36" r="3.22"/><circle class="cls-7" cx="253.67" cy="151.36" r="3.22"/><circle class="cls-7" cx="210.13" cy="162.2" r="3.22"/><circle class="cls-7" cx="221.01" cy="162.2" r="3.22"/><circle class="cls-7" cx="231.9" cy="162.2" r="3.22"/><circle class="cls-7" cx="242.78" cy="162.2" r="3.22"/><circle class="cls-7" cx="253.67" cy="162.2" r="3.22"/><path class="cls-7" d="M213.35,173a3.22,3.22,0,1,1-3.22-3.22A3.22,3.22,0,0,1,213.35,173Z"/><path class="cls-7" d="M224.23,173a3.22,3.22,0,1,1-3.22-3.22A3.22,3.22,0,0,1,224.23,173Z"/><path class="cls-7" d="M235.12,173a3.22,3.22,0,1,1-3.22-3.22A3.22,3.22,0,0,1,235.12,173Z"/><path class="cls-7" d="M246,173a3.23,3.23,0,1,1-3.23-3.22A3.23,3.23,0,0,1,246,173Z"/><path class="cls-7" d="M256.89,173a3.22,3.22,0,1,1-3.22-3.22A3.22,3.22,0,0,1,256.89,173Z"/><circle class="cls-7" cx="210.13" cy="183.88" r="3.22"/><circle class="cls-7" cx="221.01" cy="183.88" r="3.22"/><circle class="cls-7" cx="231.9" cy="183.88" r="3.22"/><circle class="cls-7" cx="242.78" cy="183.88" r="3.22"/><circle class="cls-7" cx="253.67" cy="183.88" r="3.22"/><circle class="cls-7" cx="210.13" cy="194.72" r="3.22"/><circle class="cls-7" cx="221.01" cy="194.72" r="3.22"/><circle class="cls-7" cx="231.9" cy="194.72" r="3.22"/><circle class="cls-7" cx="242.78" cy="194.72" r="3.22"/><circle class="cls-7" cx="253.67" cy="194.72" r="3.22"/><circle class="cls-7" cx="210.13" cy="205.56" r="3.22"/><circle class="cls-7" cx="221.01" cy="205.56" r="3.22"/><circle class="cls-7" cx="231.9" cy="205.56" r="3.22"/><circle class="cls-7" cx="242.78" cy="205.56" r="3.22"/><circle class="cls-7" cx="253.67" cy="205.56" r="3.22"/><circle class="cls-7" cx="210.13" cy="216.4" r="3.22"/><circle class="cls-7" cx="221.01" cy="216.4" r="3.22"/><circle class="cls-7" cx="231.9" cy="216.4" r="3.22"/><circle class="cls-7" cx="242.78" cy="216.4" r="3.22"/><circle class="cls-7" cx="253.67" cy="216.4" r="3.22"/><circle class="cls-7" cx="210.13" cy="227.25" r="3.22"/><circle class="cls-7" cx="221.01" cy="227.25" r="3.22"/><circle class="cls-7" cx="231.9" cy="227.25" r="3.22"/><circle class="cls-7" cx="242.78" cy="227.25" r="3.22"/><circle class="cls-7" cx="253.67" cy="227.25" r="3.22"/><circle class="cls-7" cx="210.13" cy="238.09" r="3.22"/><circle class="cls-7" cx="221.01" cy="238.09" r="3.22"/><circle class="cls-7" cx="231.9" cy="238.09" r="3.22"/><circle class="cls-7" cx="242.78" cy="238.09" r="3.22"/><circle class="cls-7" cx="253.67" cy="238.09" r="3.22"/><circle class="cls-7" cx="210.13" cy="248.93" r="3.22"/><circle class="cls-7" cx="221.01" cy="248.93" r="3.22"/><circle class="cls-7" cx="231.9" cy="248.93" r="3.22"/><circle class="cls-7" cx="242.78" cy="248.93" r="3.22"/><circle class="cls-7" cx="253.67" cy="248.93" r="3.22"/><circle class="cls-7" cx="210.13" cy="259.77" r="3.22"/><circle class="cls-7" cx="221.01" cy="259.77" r="3.22"/><circle class="cls-7" cx="231.9" cy="259.77" r="3.22"/><circle class="cls-7" cx="242.78" cy="259.77" r="3.22"/><circle class="cls-7" cx="253.67" cy="259.77" r="3.22"/><circle class="cls-7" cx="210.13" cy="270.61" r="3.22"/><circle class="cls-7" cx="221.01" cy="270.61" r="3.22"/><circle class="cls-7" cx="231.9" cy="270.61" r="3.22"/><circle class="cls-7" cx="242.78" cy="270.61" r="3.22"/><circle class="cls-7" cx="253.67" cy="270.61" r="3.22"/><circle class="cls-7" cx="155.97" cy="248.93" r="3.22"/><circle class="cls-7" cx="166.86" cy="248.93" r="3.22"/><circle class="cls-7" cx="177.75" cy="248.93" r="3.22"/><circle class="cls-7" cx="188.63" cy="248.93" r="3.22"/><circle class="cls-7" cx="199.52" cy="248.93" r="3.22"/><circle class="cls-7" cx="155.97" cy="259.77" r="3.22"/><circle class="cls-7" cx="166.86" cy="259.77" r="3.22"/><circle class="cls-7" cx="177.75" cy="259.77" r="3.22"/><circle class="cls-7" cx="188.63" cy="259.77" r="3.22"/><circle class="cls-7" cx="199.52" cy="259.77" r="3.22"/><circle class="cls-7" cx="155.97" cy="270.61" r="3.22"/><circle class="cls-7" cx="166.86" cy="270.61" r="3.22"/><circle class="cls-7" cx="177.75" cy="270.61" r="3.22"/><circle class="cls-7" cx="188.63" cy="270.61" r="3.22"/><circle class="cls-7" cx="199.52" cy="270.61" r="3.22"/><circle class="cls-7" cx="155.97" cy="281.45" r="3.22"/><circle class="cls-7" cx="166.86" cy="281.45" r="3.22"/><circle class="cls-7" cx="177.75" cy="281.45" r="3.22"/><circle class="cls-7" cx="188.63" cy="281.45" r="3.22"/><circle class="cls-7" cx="199.52" cy="281.45" r="3.22"/><circle class="cls-7" cx="210.13" cy="281.45" r="3.22"/><circle class="cls-7" cx="221.01" cy="281.45" r="3.22"/><circle class="cls-7" cx="231.9" cy="281.45" r="3.22"/><circle class="cls-7" cx="242.78" cy="281.45" r="3.22"/><circle class="cls-7" cx="253.67" cy="281.45" r="3.22"/><circle class="cls-7" cx="263.94" cy="281.45" r="3.22"/><circle class="cls-7" cx="274.83" cy="281.45" r="3.22"/><circle class="cls-7" cx="285.71" cy="281.45" r="3.22"/><circle class="cls-7" cx="296.6" cy="281.45" r="3.22"/><circle class="cls-7" cx="307.48" cy="281.45" r="3.22"/><circle class="cls-7" cx="317.75" cy="281.45" r="3.22"/><circle class="cls-7" cx="328.64" cy="281.45" r="3.22"/><circle class="cls-7" cx="339.52" cy="281.45" r="3.22"/><circle class="cls-7" cx="350.41" cy="281.45" r="3.22"/><circle class="cls-7" cx="361.3" cy="281.45" r="3.22"/><circle class="cls-7" cx="371.57" cy="281.45" r="3.22"/><circle class="cls-7" cx="382.45" cy="281.45" r="3.22"/><circle class="cls-7" cx="393.34" cy="281.45" r="3.22"/><circle class="cls-7" cx="404.22" cy="281.45" r="3.22"/><circle class="cls-7" cx="415.11" cy="281.45" r="3.22"/><circle class="cls-7" cx="155.97" cy="292.29" r="3.22"/><circle class="cls-7" cx="166.86" cy="292.29" r="3.22"/><circle class="cls-7" cx="177.75" cy="292.29" r="3.22"/><circle class="cls-7" cx="188.63" cy="292.29" r="3.22"/><circle class="cls-7" cx="199.52" cy="292.29" r="3.22"/><circle class="cls-7" cx="210.13" cy="292.29" r="3.22"/><circle class="cls-7" cx="221.01" cy="292.29" r="3.22"/><circle class="cls-7" cx="231.9" cy="292.29" r="3.22"/><circle class="cls-7" cx="242.78" cy="292.29" r="3.22"/><circle class="cls-7" cx="253.67" cy="292.29" r="3.22"/><circle class="cls-7" cx="263.94" cy="292.29" r="3.22"/><circle class="cls-7" cx="274.83" cy="292.29" r="3.22"/><circle class="cls-7" cx="285.71" cy="292.29" r="3.22"/><circle class="cls-7" cx="296.6" cy="292.29" r="3.22"/><circle class="cls-7" cx="307.48" cy="292.29" r="3.22"/><circle class="cls-7" cx="317.75" cy="292.29" r="3.22"/><circle class="cls-7" cx="328.64" cy="292.29" r="3.22"/><circle class="cls-7" cx="339.52" cy="292.29" r="3.22"/><circle class="cls-7" cx="350.41" cy="292.29" r="3.22"/><circle class="cls-7" cx="361.3" cy="292.29" r="3.22"/><circle class="cls-7" cx="371.57" cy="292.29" r="3.22"/><circle class="cls-7" cx="382.45" cy="292.29" r="3.22"/><circle class="cls-7" cx="393.34" cy="292.29" r="3.22"/><circle class="cls-7" cx="404.22" cy="292.29" r="3.22"/><circle class="cls-7" cx="415.11" cy="292.29" r="3.22"/><path class="cls-7" d="M159.2,303.13a3.23,3.23,0,1,1-3.23-3.22A3.23,3.23,0,0,1,159.2,303.13Z"/><path class="cls-7" d="M170.08,303.13a3.22,3.22,0,1,1-3.22-3.22A3.23,3.23,0,0,1,170.08,303.13Z"/><path class="cls-7" d="M181,303.13a3.23,3.23,0,1,1-3.22-3.22A3.23,3.23,0,0,1,181,303.13Z"/><path class="cls-7" d="M191.85,303.13a3.22,3.22,0,1,1-3.22-3.22A3.23,3.23,0,0,1,191.85,303.13Z"/><path class="cls-7" d="M202.74,303.13a3.23,3.23,0,1,1-3.22-3.22A3.23,3.23,0,0,1,202.74,303.13Z"/><path class="cls-7" d="M213.35,303.13a3.22,3.22,0,1,1-3.22-3.22A3.23,3.23,0,0,1,213.35,303.13Z"/><path class="cls-7" d="M224.23,303.13a3.22,3.22,0,1,1-3.22-3.22A3.23,3.23,0,0,1,224.23,303.13Z"/><path class="cls-7" d="M235.12,303.13a3.22,3.22,0,1,1-3.22-3.22A3.23,3.23,0,0,1,235.12,303.13Z"/><path class="cls-7" d="M246,303.13a3.23,3.23,0,1,1-3.23-3.22A3.23,3.23,0,0,1,246,303.13Z"/><path class="cls-7" d="M256.89,303.13a3.22,3.22,0,1,1-3.22-3.22A3.23,3.23,0,0,1,256.89,303.13Z"/><path class="cls-7" d="M267.16,303.13a3.22,3.22,0,1,1-3.22-3.22A3.23,3.23,0,0,1,267.16,303.13Z"/><path class="cls-7" d="M278.05,303.13a3.23,3.23,0,1,1-3.22-3.22A3.23,3.23,0,0,1,278.05,303.13Z"/><path class="cls-7" d="M288.93,303.13a3.22,3.22,0,1,1-3.22-3.22A3.23,3.23,0,0,1,288.93,303.13Z"/><path class="cls-7" d="M299.82,303.13a3.22,3.22,0,1,1-3.22-3.22A3.23,3.23,0,0,1,299.82,303.13Z"/><path class="cls-7" d="M310.7,303.13a3.22,3.22,0,1,1-3.22-3.22A3.23,3.23,0,0,1,310.7,303.13Z"/><path class="cls-7" d="M321,303.13a3.23,3.23,0,1,1-3.23-3.22A3.23,3.23,0,0,1,321,303.13Z"/><path class="cls-7" d="M331.86,303.13a3.22,3.22,0,1,1-3.22-3.22A3.23,3.23,0,0,1,331.86,303.13Z"/><path class="cls-7" d="M342.75,303.13a3.23,3.23,0,1,1-3.23-3.22A3.23,3.23,0,0,1,342.75,303.13Z"/><path class="cls-7" d="M353.63,303.13a3.22,3.22,0,1,1-3.22-3.22A3.23,3.23,0,0,1,353.63,303.13Z"/><path class="cls-7" d="M364.52,303.13a3.23,3.23,0,1,1-3.22-3.22A3.23,3.23,0,0,1,364.52,303.13Z"/><path class="cls-7" d="M374.79,303.13a3.23,3.23,0,1,1-3.22-3.22A3.23,3.23,0,0,1,374.79,303.13Z"/><path class="cls-7" d="M385.67,303.13a3.22,3.22,0,1,1-3.22-3.22A3.23,3.23,0,0,1,385.67,303.13Z"/><path class="cls-7" d="M396.56,303.13a3.22,3.22,0,1,1-3.22-3.22A3.23,3.23,0,0,1,396.56,303.13Z"/><path class="cls-7" d="M407.44,303.13a3.22,3.22,0,1,1-3.22-3.22A3.23,3.23,0,0,1,407.44,303.13Z"/><path class="cls-7" d="M418.33,303.13a3.22,3.22,0,1,1-3.22-3.22A3.23,3.23,0,0,1,418.33,303.13Z"/><path class="cls-7" d="M374.79,303.13a3.23,3.23,0,1,1-3.22-3.22A3.23,3.23,0,0,1,374.79,303.13Z"/><path class="cls-7" d="M385.67,303.13a3.22,3.22,0,1,1-3.22-3.22A3.23,3.23,0,0,1,385.67,303.13Z"/><path class="cls-7" d="M396.56,303.13a3.22,3.22,0,1,1-3.22-3.22A3.23,3.23,0,0,1,396.56,303.13Z"/><path class="cls-7" d="M407.44,303.13a3.22,3.22,0,1,1-3.22-3.22A3.23,3.23,0,0,1,407.44,303.13Z"/><path class="cls-7" d="M418.33,303.13a3.22,3.22,0,1,1-3.22-3.22A3.23,3.23,0,0,1,418.33,303.13Z"/><circle class="cls-14" cx="263.94" cy="140.52" r="3.22"/><circle class="cls-14" cx="274.83" cy="140.52" r="3.22"/><circle class="cls-14" cx="285.71" cy="140.52" r="3.22"/><circle class="cls-14" cx="296.6" cy="140.52" r="3.22"/><circle class="cls-14" cx="307.48" cy="140.52" r="3.22"/><circle class="cls-14" cx="317.75" cy="140.52" r="3.22"/><circle class="cls-14" cx="328.64" cy="140.52" r="3.22"/><circle class="cls-14" cx="339.52" cy="140.52" r="3.22"/><circle class="cls-14" cx="350.41" cy="140.52" r="3.22"/><circle class="cls-14" cx="361.3" cy="140.52" r="3.22"/><circle class="cls-14" cx="263.94" cy="151.36" r="3.22"/><circle class="cls-14" cx="274.83" cy="151.36" r="3.22"/><circle class="cls-14" cx="285.71" cy="151.36" r="3.22"/><circle class="cls-14" cx="296.6" cy="151.36" r="3.22"/><circle class="cls-14" cx="307.48" cy="151.36" r="3.22"/><circle class="cls-14" cx="317.75" cy="151.36" r="3.22"/><circle class="cls-14" cx="328.64" cy="151.36" r="3.22"/><circle class="cls-14" cx="339.52" cy="151.36" r="3.22"/><circle class="cls-14" cx="350.41" cy="151.36" r="3.22"/><circle class="cls-14" cx="361.3" cy="151.36" r="3.22"/><circle class="cls-14" cx="263.94" cy="162.2" r="3.22"/><circle class="cls-14" cx="274.83" cy="162.2" r="3.22"/><circle class="cls-14" cx="285.71" cy="162.2" r="3.22"/><circle class="cls-14" cx="296.6" cy="162.2" r="3.22"/><circle class="cls-14" cx="307.48" cy="162.2" r="3.22"/><circle class="cls-14" cx="317.75" cy="162.2" r="3.22"/><circle class="cls-14" cx="328.64" cy="162.2" r="3.22"/><circle class="cls-14" cx="339.52" cy="162.2" r="3.22"/><circle class="cls-14" cx="350.41" cy="162.2" r="3.22"/><circle class="cls-14" cx="361.3" cy="162.2" r="3.22"/><path class="cls-14" d="M267.16,173a3.22,3.22,0,1,1-3.22-3.22A3.22,3.22,0,0,1,267.16,173Z"/><path class="cls-14" d="M278.05,173a3.23,3.23,0,1,1-3.22-3.22A3.22,3.22,0,0,1,278.05,173Z"/><path class="cls-14" d="M288.93,173a3.22,3.22,0,1,1-3.22-3.22A3.22,3.22,0,0,1,288.93,173Z"/><path class="cls-14" d="M299.82,173a3.22,3.22,0,1,1-3.22-3.22A3.22,3.22,0,0,1,299.82,173Z"/><path class="cls-14" d="M310.7,173a3.22,3.22,0,1,1-3.22-3.22A3.22,3.22,0,0,1,310.7,173Z"/><path class="cls-14" d="M321,173a3.23,3.23,0,1,1-3.23-3.22A3.23,3.23,0,0,1,321,173Z"/><path class="cls-14" d="M331.86,173a3.22,3.22,0,1,1-3.22-3.22A3.22,3.22,0,0,1,331.86,173Z"/><path class="cls-14" d="M342.75,173a3.23,3.23,0,1,1-3.23-3.22A3.23,3.23,0,0,1,342.75,173Z"/><path class="cls-14" d="M353.63,173a3.22,3.22,0,1,1-3.22-3.22A3.22,3.22,0,0,1,353.63,173Z"/><path class="cls-14" d="M364.52,173a3.23,3.23,0,1,1-3.22-3.22A3.22,3.22,0,0,1,364.52,173Z"/><circle class="cls-14" cx="263.94" cy="183.88" r="3.22"/><circle class="cls-14" cx="274.83" cy="183.88" r="3.22"/><circle class="cls-14" cx="285.71" cy="183.88" r="3.22"/><circle class="cls-14" cx="296.6" cy="183.88" r="3.22"/><circle class="cls-14" cx="307.48" cy="183.88" r="3.22"/><circle class="cls-14" cx="317.75" cy="183.88" r="3.22"/><circle class="cls-14" cx="328.64" cy="183.88" r="3.22"/><circle class="cls-14" cx="339.52" cy="183.88" r="3.22"/><circle class="cls-14" cx="350.41" cy="183.88" r="3.22"/><circle class="cls-14" cx="361.3" cy="183.88" r="3.22"/><circle class="cls-14" cx="263.94" cy="194.72" r="3.22"/><circle class="cls-14" cx="274.83" cy="194.72" r="3.22"/><circle class="cls-14" cx="285.71" cy="194.72" r="3.22"/><circle class="cls-14" cx="296.6" cy="194.72" r="3.22"/><circle class="cls-14" cx="307.48" cy="194.72" r="3.22"/><circle class="cls-14" cx="317.75" cy="194.72" r="3.22"/><circle class="cls-14" cx="328.64" cy="194.72" r="3.22"/><circle class="cls-14" cx="339.52" cy="194.72" r="3.22"/><circle class="cls-14" cx="350.41" cy="194.72" r="3.22"/><circle class="cls-14" cx="361.3" cy="194.72" r="3.22"/><circle class="cls-14" cx="263.94" cy="205.56" r="3.22"/><circle class="cls-14" cx="274.83" cy="205.56" r="3.22"/><circle class="cls-14" cx="285.71" cy="205.56" r="3.22"/><circle class="cls-14" cx="296.6" cy="205.56" r="3.22"/><circle class="cls-14" cx="307.48" cy="205.56" r="3.22"/><circle class="cls-14" cx="317.75" cy="205.56" r="3.22"/><circle class="cls-14" cx="328.64" cy="205.56" r="3.22"/><circle class="cls-14" cx="339.52" cy="205.56" r="3.22"/><circle class="cls-14" cx="350.41" cy="205.56" r="3.22"/><circle class="cls-14" cx="361.3" cy="205.56" r="3.22"/><circle class="cls-14" cx="263.94" cy="216.4" r="3.22"/><circle class="cls-14" cx="274.83" cy="216.4" r="3.22"/><circle class="cls-14" cx="285.71" cy="216.4" r="3.22"/><circle class="cls-14" cx="296.6" cy="216.4" r="3.22"/><circle class="cls-14" cx="307.48" cy="216.4" r="3.22"/><circle class="cls-14" cx="317.75" cy="216.4" r="3.22"/><circle class="cls-14" cx="328.64" cy="216.4" r="3.22"/><circle class="cls-14" cx="339.52" cy="216.4" r="3.22"/><circle class="cls-14" cx="350.41" cy="216.4" r="3.22"/><circle class="cls-14" cx="361.3" cy="216.4" r="3.22"/><circle class="cls-14" cx="263.94" cy="227.25" r="3.22"/><circle class="cls-14" cx="274.83" cy="227.25" r="3.22"/><circle class="cls-14" cx="285.71" cy="227.25" r="3.22"/><circle class="cls-14" cx="296.6" cy="227.25" r="3.22"/><circle class="cls-14" cx="307.48" cy="227.25" r="3.22"/><circle class="cls-14" cx="317.75" cy="227.25" r="3.22"/><circle class="cls-14" cx="328.64" cy="227.25" r="3.22"/><circle class="cls-14" cx="339.52" cy="227.25" r="3.22"/><circle class="cls-14" cx="350.41" cy="227.25" r="3.22"/><circle class="cls-14" cx="361.3" cy="227.25" r="3.22"/><circle class="cls-14" cx="263.94" cy="238.09" r="3.22"/><circle class="cls-14" cx="274.83" cy="238.09" r="3.22"/><circle class="cls-14" cx="285.71" cy="238.09" r="3.22"/><circle class="cls-14" cx="296.6" cy="238.09" r="3.22"/><circle class="cls-14" cx="307.48" cy="238.09" r="3.22"/><circle class="cls-14" cx="317.75" cy="238.09" r="3.22"/><circle class="cls-14" cx="328.64" cy="238.09" r="3.22"/><circle class="cls-14" cx="339.52" cy="238.09" r="3.22"/><circle class="cls-14" cx="350.41" cy="238.09" r="3.22"/><circle class="cls-14" cx="361.3" cy="238.09" r="3.22"/><circle class="cls-14" cx="263.94" cy="248.93" r="3.22"/><circle class="cls-14" cx="274.83" cy="248.93" r="3.22"/><circle class="cls-14" cx="285.71" cy="248.93" r="3.22"/><circle class="cls-14" cx="296.6" cy="248.93" r="3.22"/><circle class="cls-14" cx="307.48" cy="248.93" r="3.22"/><circle class="cls-14" cx="317.75" cy="248.93" r="3.22"/><circle class="cls-14" cx="328.64" cy="248.93" r="3.22"/><circle class="cls-14" cx="339.52" cy="248.93" r="3.22"/><circle class="cls-14" cx="350.41" cy="248.93" r="3.22"/><circle class="cls-14" cx="361.3" cy="248.93" r="3.22"/><circle class="cls-14" cx="263.94" cy="259.77" r="3.22"/><circle class="cls-14" cx="274.83" cy="259.77" r="3.22"/><circle class="cls-14" cx="285.71" cy="259.77" r="3.22"/><circle class="cls-14" cx="296.6" cy="259.77" r="3.22"/><circle class="cls-14" cx="307.48" cy="259.77" r="3.22"/><circle class="cls-14" cx="317.75" cy="259.77" r="3.22"/><circle class="cls-14" cx="328.64" cy="259.77" r="3.22"/><circle class="cls-14" cx="339.52" cy="259.77" r="3.22"/><circle class="cls-14" cx="350.41" cy="259.77" r="3.22"/><circle class="cls-14" cx="361.3" cy="259.77" r="3.22"/><circle class="cls-14" cx="263.94" cy="270.61" r="3.22"/><circle class="cls-14" cx="274.83" cy="270.61" r="3.22"/><circle class="cls-14" cx="285.71" cy="270.61" r="3.22"/><circle class="cls-14" cx="296.6" cy="270.61" r="3.22"/><circle class="cls-14" cx="307.48" cy="270.61" r="3.22"/><circle class="cls-14" cx="317.75" cy="270.61" r="3.22"/><circle class="cls-14" cx="328.64" cy="270.61" r="3.22"/><circle class="cls-14" cx="339.52" cy="270.61" r="3.22"/><circle class="cls-14" cx="350.41" cy="270.61" r="3.22"/><circle class="cls-14" cx="361.3" cy="270.61" r="3.22"/><circle class="cls-14" cx="155.97" cy="140.52" r="3.22"/><circle class="cls-14" cx="166.86" cy="140.52" r="3.22"/><circle class="cls-14" cx="177.75" cy="140.52" r="3.22"/><circle class="cls-14" cx="188.63" cy="140.52" r="3.22"/><circle class="cls-14" cx="199.52" cy="140.52" r="3.22"/><circle class="cls-14" cx="155.97" cy="151.36" r="3.22"/><circle class="cls-14" cx="166.86" cy="151.36" r="3.22"/><circle class="cls-14" cx="177.75" cy="151.36" r="3.22"/><circle class="cls-14" cx="188.63" cy="151.36" r="3.22"/><circle class="cls-14" cx="199.52" cy="151.36" r="3.22"/><circle class="cls-14" cx="155.97" cy="162.2" r="3.22"/><circle class="cls-14" cx="166.86" cy="162.2" r="3.22"/><circle class="cls-14" cx="177.75" cy="162.2" r="3.22"/><circle class="cls-14" cx="188.63" cy="162.2" r="3.22"/><circle class="cls-14" cx="199.52" cy="162.2" r="3.22"/><path class="cls-14" d="M159.2,173a3.23,3.23,0,1,1-3.23-3.22A3.23,3.23,0,0,1,159.2,173Z"/><path class="cls-14" d="M170.08,173a3.22,3.22,0,1,1-3.22-3.22A3.22,3.22,0,0,1,170.08,173Z"/><path class="cls-14" d="M181,173a3.23,3.23,0,1,1-3.22-3.22A3.22,3.22,0,0,1,181,173Z"/><path class="cls-14" d="M191.85,173a3.22,3.22,0,1,1-3.22-3.22A3.22,3.22,0,0,1,191.85,173Z"/><path class="cls-14" d="M202.74,173a3.23,3.23,0,1,1-3.22-3.22A3.22,3.22,0,0,1,202.74,173Z"/><circle class="cls-14" cx="155.97" cy="183.88" r="3.22"/><circle class="cls-14" cx="166.86" cy="183.88" r="3.22"/><circle class="cls-14" cx="177.75" cy="183.88" r="3.22"/><circle class="cls-14" cx="188.63" cy="183.88" r="3.22"/><circle class="cls-14" cx="199.52" cy="183.88" r="3.22"/><circle class="cls-14" cx="155.97" cy="194.72" r="3.22"/><circle class="cls-14" cx="166.86" cy="194.72" r="3.22"/><circle class="cls-14" cx="177.75" cy="194.72" r="3.22"/><circle class="cls-14" cx="188.63" cy="194.72" r="3.22"/><circle class="cls-14" cx="199.52" cy="194.72" r="3.22"/><circle class="cls-14" cx="155.97" cy="205.56" r="3.22"/><circle class="cls-14" cx="166.86" cy="205.56" r="3.22"/><circle class="cls-14" cx="177.75" cy="205.56" r="3.22"/><circle class="cls-14" cx="188.63" cy="205.56" r="3.22"/><circle class="cls-14" cx="199.52" cy="205.56" r="3.22"/><circle class="cls-14" cx="155.97" cy="216.4" r="3.22"/><circle class="cls-14" cx="166.86" cy="216.4" r="3.22"/><circle class="cls-14" cx="177.75" cy="216.4" r="3.22"/><circle class="cls-14" cx="188.63" cy="216.4" r="3.22"/><circle class="cls-14" cx="199.52" cy="216.4" r="3.22"/><circle class="cls-14" cx="155.97" cy="227.25" r="3.22"/><circle class="cls-14" cx="166.86" cy="227.25" r="3.22"/><circle class="cls-14" cx="177.75" cy="227.25" r="3.22"/><circle class="cls-14" cx="188.63" cy="227.25" r="3.22"/><circle class="cls-14" cx="199.52" cy="227.25" r="3.22"/><circle class="cls-14" cx="155.97" cy="238.09" r="3.22"/><circle class="cls-14" cx="166.86" cy="238.09" r="3.22"/><circle class="cls-14" cx="177.75" cy="238.09" r="3.22"/><circle class="cls-14" cx="188.63" cy="238.09" r="3.22"/><circle class="cls-14" cx="199.52" cy="238.09" r="3.22"/><circle class="cls-14" cx="210.13" cy="140.52" r="3.22"/><circle class="cls-14" cx="221.01" cy="140.52" r="3.22"/><circle class="cls-14" cx="231.9" cy="140.52" r="3.22"/><circle class="cls-14" cx="242.78" cy="140.52" r="3.22"/><circle class="cls-14" cx="253.67" cy="140.52" r="3.22"/><circle class="cls-14" cx="210.13" cy="151.36" r="3.22"/><circle class="cls-14" cx="221.01" cy="151.36" r="3.22"/><circle class="cls-14" cx="231.9" cy="151.36" r="3.22"/><circle class="cls-14" cx="242.78" cy="151.36" r="3.22"/><circle class="cls-14" cx="253.67" cy="151.36" r="3.22"/><circle class="cls-14" cx="210.13" cy="162.2" r="3.22"/><circle class="cls-14" cx="221.01" cy="162.2" r="3.22"/><circle class="cls-14" cx="231.9" cy="162.2" r="3.22"/><circle class="cls-14" cx="242.78" cy="162.2" r="3.22"/><circle class="cls-14" cx="253.67" cy="162.2" r="3.22"/><path class="cls-14" d="M213.35,173a3.22,3.22,0,1,1-3.22-3.22A3.22,3.22,0,0,1,213.35,173Z"/><path class="cls-14" d="M224.23,173a3.22,3.22,0,1,1-3.22-3.22A3.22,3.22,0,0,1,224.23,173Z"/><path class="cls-14" d="M235.12,173a3.22,3.22,0,1,1-3.22-3.22A3.22,3.22,0,0,1,235.12,173Z"/><path class="cls-14" d="M246,173a3.23,3.23,0,1,1-3.23-3.22A3.23,3.23,0,0,1,246,173Z"/><path class="cls-14" d="M256.89,173a3.22,3.22,0,1,1-3.22-3.22A3.22,3.22,0,0,1,256.89,173Z"/><circle class="cls-14" cx="210.13" cy="183.88" r="3.22"/><circle class="cls-14" cx="221.01" cy="183.88" r="3.22"/><circle class="cls-14" cx="231.9" cy="183.88" r="3.22"/><circle class="cls-14" cx="242.78" cy="183.88" r="3.22"/><circle class="cls-14" cx="253.67" cy="183.88" r="3.22"/><circle class="cls-14" cx="210.13" cy="194.72" r="3.22"/><circle class="cls-14" cx="221.01" cy="194.72" r="3.22"/><circle class="cls-14" cx="231.9" cy="194.72" r="3.22"/><circle class="cls-14" cx="242.78" cy="194.72" r="3.22"/><circle class="cls-14" cx="253.67" cy="194.72" r="3.22"/><circle class="cls-14" cx="210.13" cy="205.56" r="3.22"/><circle class="cls-14" cx="221.01" cy="205.56" r="3.22"/><circle class="cls-14" cx="231.9" cy="205.56" r="3.22"/><circle class="cls-14" cx="242.78" cy="205.56" r="3.22"/><circle class="cls-14" cx="253.67" cy="205.56" r="3.22"/><circle class="cls-14" cx="210.13" cy="216.4" r="3.22"/><circle class="cls-14" cx="221.01" cy="216.4" r="3.22"/><circle class="cls-14" cx="231.9" cy="216.4" r="3.22"/><circle class="cls-14" cx="242.78" cy="216.4" r="3.22"/><circle class="cls-14" cx="253.67" cy="216.4" r="3.22"/><circle class="cls-14" cx="210.13" cy="227.25" r="3.22"/><circle class="cls-14" cx="221.01" cy="227.25" r="3.22"/><circle class="cls-14" cx="231.9" cy="227.25" r="3.22"/><circle class="cls-14" cx="242.78" cy="227.25" r="3.22"/><circle class="cls-14" cx="253.67" cy="227.25" r="3.22"/><circle class="cls-14" cx="210.13" cy="238.09" r="3.22"/><circle class="cls-14" cx="221.01" cy="238.09" r="3.22"/><circle class="cls-14" cx="231.9" cy="238.09" r="3.22"/><circle class="cls-14" cx="242.78" cy="238.09" r="3.22"/><circle class="cls-14" cx="253.67" cy="238.09" r="3.22"/><circle class="cls-14" cx="210.13" cy="248.93" r="3.22"/><circle class="cls-14" cx="221.01" cy="248.93" r="3.22"/><circle class="cls-14" cx="231.9" cy="248.93" r="3.22"/><circle class="cls-14" cx="242.78" cy="248.93" r="3.22"/><circle class="cls-14" cx="253.67" cy="248.93" r="3.22"/><circle class="cls-14" cx="210.13" cy="259.77" r="3.22"/><circle class="cls-14" cx="221.01" cy="259.77" r="3.22"/><circle class="cls-14" cx="231.9" cy="259.77" r="3.22"/><circle class="cls-14" cx="242.78" cy="259.77" r="3.22"/><circle class="cls-14" cx="253.67" cy="259.77" r="3.22"/><circle class="cls-14" cx="210.13" cy="270.61" r="3.22"/><circle class="cls-14" cx="221.01" cy="270.61" r="3.22"/><circle class="cls-14" cx="231.9" cy="270.61" r="3.22"/><circle class="cls-14" cx="242.78" cy="270.61" r="3.22"/><circle class="cls-14" cx="253.67" cy="270.61" r="3.22"/><circle class="cls-14" cx="155.97" cy="248.93" r="3.22"/><circle class="cls-14" cx="166.86" cy="248.93" r="3.22"/><circle class="cls-14" cx="177.75" cy="248.93" r="3.22"/><circle class="cls-14" cx="188.63" cy="248.93" r="3.22"/><circle class="cls-14" cx="199.52" cy="248.93" r="3.22"/><circle class="cls-14" cx="155.97" cy="259.77" r="3.22"/><circle class="cls-14" cx="166.86" cy="259.77" r="3.22"/><circle class="cls-14" cx="177.75" cy="259.77" r="3.22"/><circle class="cls-14" cx="188.63" cy="259.77" r="3.22"/><circle class="cls-14" cx="199.52" cy="259.77" r="3.22"/><circle class="cls-14" cx="155.97" cy="270.61" r="3.22"/><circle class="cls-14" cx="166.86" cy="270.61" r="3.22"/><circle class="cls-14" cx="177.75" cy="270.61" r="3.22"/><circle class="cls-14" cx="188.63" cy="270.61" r="3.22"/><circle class="cls-14" cx="199.52" cy="270.61" r="3.22"/><circle class="cls-14" cx="155.97" cy="281.45" r="3.22"/><circle class="cls-14" cx="166.86" cy="281.45" r="3.22"/><circle class="cls-14" cx="177.75" cy="281.45" r="3.22"/><circle class="cls-14" cx="188.63" cy="281.45" r="3.22"/><circle class="cls-14" cx="199.52" cy="281.45" r="3.22"/><circle class="cls-14" cx="210.13" cy="281.45" r="3.22"/><circle class="cls-14" cx="221.01" cy="281.45" r="3.22"/><circle class="cls-14" cx="231.9" cy="281.45" r="3.22"/><circle class="cls-14" cx="242.78" cy="281.45" r="3.22"/><circle class="cls-14" cx="253.67" cy="281.45" r="3.22"/><circle class="cls-14" cx="263.94" cy="281.45" r="3.22"/><circle class="cls-14" cx="274.83" cy="281.45" r="3.22"/><circle class="cls-14" cx="285.71" cy="281.45" r="3.22"/><circle class="cls-14" cx="296.6" cy="281.45" r="3.22"/><circle class="cls-14" cx="307.48" cy="281.45" r="3.22"/><circle class="cls-14" cx="317.75" cy="281.45" r="3.22"/><circle class="cls-14" cx="328.64" cy="281.45" r="3.22"/><circle class="cls-14" cx="339.52" cy="281.45" r="3.22"/><circle class="cls-14" cx="350.41" cy="281.45" r="3.22"/><circle class="cls-14" cx="361.3" cy="281.45" r="3.22"/><circle class="cls-14" cx="371.57" cy="281.45" r="3.22"/><circle class="cls-14" cx="382.45" cy="281.45" r="3.22"/><circle class="cls-14" cx="393.34" cy="281.45" r="3.22"/><circle class="cls-14" cx="404.22" cy="281.45" r="3.22"/><circle class="cls-14" cx="415.11" cy="281.45" r="3.22"/><circle class="cls-14" cx="155.97" cy="292.29" r="3.22"/><circle class="cls-14" cx="166.86" cy="292.29" r="3.22"/><circle class="cls-14" cx="177.75" cy="292.29" r="3.22"/><circle class="cls-14" cx="188.63" cy="292.29" r="3.22"/><circle class="cls-14" cx="199.52" cy="292.29" r="3.22"/><circle class="cls-14" cx="210.13" cy="292.29" r="3.22"/><circle class="cls-14" cx="221.01" cy="292.29" r="3.22"/><circle class="cls-14" cx="231.9" cy="292.29" r="3.22"/><circle class="cls-14" cx="242.78" cy="292.29" r="3.22"/><circle class="cls-14" cx="253.67" cy="292.29" r="3.22"/><circle class="cls-14" cx="263.94" cy="292.29" r="3.22"/><circle class="cls-14" cx="274.83" cy="292.29" r="3.22"/><circle class="cls-14" cx="285.71" cy="292.29" r="3.22"/><circle class="cls-14" cx="296.6" cy="292.29" r="3.22"/><circle class="cls-14" cx="307.48" cy="292.29" r="3.22"/><circle class="cls-14" cx="317.75" cy="292.29" r="3.22"/><circle class="cls-14" cx="328.64" cy="292.29" r="3.22"/><circle class="cls-14" cx="339.52" cy="292.29" r="3.22"/><circle class="cls-14" cx="350.41" cy="292.29" r="3.22"/><circle class="cls-14" cx="361.3" cy="292.29" r="3.22"/><circle class="cls-14" cx="371.57" cy="292.29" r="3.22"/><circle class="cls-14" cx="382.45" cy="292.29" r="3.22"/><circle class="cls-14" cx="393.34" cy="292.29" r="3.22"/><circle class="cls-14" cx="404.22" cy="292.29" r="3.22"/><circle class="cls-14" cx="415.11" cy="292.29" r="3.22"/><path class="cls-14" d="M159.2,303.13a3.23,3.23,0,1,1-3.23-3.22A3.23,3.23,0,0,1,159.2,303.13Z"/><path class="cls-14" d="M170.08,303.13a3.22,3.22,0,1,1-3.22-3.22A3.23,3.23,0,0,1,170.08,303.13Z"/><path class="cls-14" d="M181,303.13a3.23,3.23,0,1,1-3.22-3.22A3.23,3.23,0,0,1,181,303.13Z"/><path class="cls-14" d="M191.85,303.13a3.22,3.22,0,1,1-3.22-3.22A3.23,3.23,0,0,1,191.85,303.13Z"/><path class="cls-14" d="M202.74,303.13a3.23,3.23,0,1,1-3.22-3.22A3.23,3.23,0,0,1,202.74,303.13Z"/><path class="cls-14" d="M213.35,303.13a3.22,3.22,0,1,1-3.22-3.22A3.23,3.23,0,0,1,213.35,303.13Z"/><path class="cls-14" d="M224.23,303.13a3.22,3.22,0,1,1-3.22-3.22A3.23,3.23,0,0,1,224.23,303.13Z"/><path class="cls-14" d="M235.12,303.13a3.22,3.22,0,1,1-3.22-3.22A3.23,3.23,0,0,1,235.12,303.13Z"/><path class="cls-14" d="M246,303.13a3.23,3.23,0,1,1-3.23-3.22A3.23,3.23,0,0,1,246,303.13Z"/><path class="cls-14" d="M256.89,303.13a3.22,3.22,0,1,1-3.22-3.22A3.23,3.23,0,0,1,256.89,303.13Z"/><path class="cls-14" d="M267.16,303.13a3.22,3.22,0,1,1-3.22-3.22A3.23,3.23,0,0,1,267.16,303.13Z"/><path class="cls-14" d="M278.05,303.13a3.23,3.23,0,1,1-3.22-3.22A3.23,3.23,0,0,1,278.05,303.13Z"/><path class="cls-14" d="M288.93,303.13a3.22,3.22,0,1,1-3.22-3.22A3.23,3.23,0,0,1,288.93,303.13Z"/><path class="cls-14" d="M299.82,303.13a3.22,3.22,0,1,1-3.22-3.22A3.23,3.23,0,0,1,299.82,303.13Z"/><path class="cls-14" d="M310.7,303.13a3.22,3.22,0,1,1-3.22-3.22A3.23,3.23,0,0,1,310.7,303.13Z"/><path class="cls-14" d="M321,303.13a3.23,3.23,0,1,1-3.23-3.22A3.23,3.23,0,0,1,321,303.13Z"/><path class="cls-14" d="M331.86,303.13a3.22,3.22,0,1,1-3.22-3.22A3.23,3.23,0,0,1,331.86,303.13Z"/><path class="cls-14" d="M342.75,303.13a3.23,3.23,0,1,1-3.23-3.22A3.23,3.23,0,0,1,342.75,303.13Z"/><path class="cls-14" d="M353.63,303.13a3.22,3.22,0,1,1-3.22-3.22A3.23,3.23,0,0,1,353.63,303.13Z"/><path class="cls-14" d="M364.52,303.13a3.23,3.23,0,1,1-3.22-3.22A3.23,3.23,0,0,1,364.52,303.13Z"/><path class="cls-14" d="M374.79,303.13a3.23,3.23,0,1,1-3.22-3.22A3.23,3.23,0,0,1,374.79,303.13Z"/><path class="cls-14" d="M385.67,303.13a3.22,3.22,0,1,1-3.22-3.22A3.23,3.23,0,0,1,385.67,303.13Z"/><path class="cls-14" d="M396.56,303.13a3.22,3.22,0,1,1-3.22-3.22A3.23,3.23,0,0,1,396.56,303.13Z"/><path class="cls-14" d="M407.44,303.13a3.22,3.22,0,1,1-3.22-3.22A3.23,3.23,0,0,1,407.44,303.13Z"/><path class="cls-14" d="M418.33,303.13a3.22,3.22,0,1,1-3.22-3.22A3.23,3.23,0,0,1,418.33,303.13Z"/><path class="cls-14" d="M374.79,303.13a3.23,3.23,0,1,1-3.22-3.22A3.23,3.23,0,0,1,374.79,303.13Z"/><path class="cls-14" d="M385.67,303.13a3.22,3.22,0,1,1-3.22-3.22A3.23,3.23,0,0,1,385.67,303.13Z"/><path class="cls-14" d="M396.56,303.13a3.22,3.22,0,1,1-3.22-3.22A3.23,3.23,0,0,1,396.56,303.13Z"/><path class="cls-14" d="M407.44,303.13a3.22,3.22,0,1,1-3.22-3.22A3.23,3.23,0,0,1,407.44,303.13Z"/><path class="cls-14" d="M418.33,303.13a3.22,3.22,0,1,1-3.22-3.22A3.23,3.23,0,0,1,418.33,303.13Z"/></g><path class="cls-15" d="M313.8,151c0,1.91-2.86,3.46-6.4,3.46S301,152.94,301,151s2.87-3.46,6.4-3.46S313.8,149.12,313.8,151Z"/><path class="cls-15" d="M265.46,151c0,1.91-2.86,3.46-6.4,3.46s-6.39-1.55-6.39-3.46,2.86-3.46,6.39-3.46S265.46,149.12,265.46,151Z"/><rect class="cls-4" x="321.91" y="124.25" width="7.3" height="28.98"/><path class="cls-4" d="M337.41,128.6h1.71a0,0,0,0,1,0,0v20.29a0,0,0,0,1,0,0h-1.71a10.15,10.15,0,0,1-10.15-10.15v0a10.15,10.15,0,0,1,10.15-10.15Z" transform="translate(666.38 277.49) rotate(180)"/><rect class="cls-4" x="236.16" y="124.25" width="7.3" height="28.98" transform="translate(479.62 277.49) rotate(180)"/><path class="cls-4" d="M236.4,128.6h1.71a0,0,0,0,1,0,0v20.29a0,0,0,0,1,0,0H236.4a10.15,10.15,0,0,1-10.15-10.15v0A10.15,10.15,0,0,1,236.4,128.6Z"/><path class="cls-4" d="M328.29,137.19h-5.47v-7.37c0-26.62-16.65-48.29-37.12-48.29h-6c-20.47,0-37.12,21.67-37.12,48.29h-5.47c0-29.64,19.1-53.76,42.59-53.76h6c23.48,0,42.59,24.12,42.59,53.76Z"/><path class="cls-4" d="M271.09,174.41H249.71a11.28,11.28,0,0,1-11.27-11.26V152.26h2.74v10.89a8.54,8.54,0,0,0,8.53,8.53h21.38Z"/><path class="cls-12" d="M279.94,162a13.31,13.31,0,0,1-4.13,0,8.69,8.69,0,0,1-4-1.66,4.09,4.09,0,0,1-1.41-2,3.46,3.46,0,0,1-.13-1.32,3.76,3.76,0,0,1,.37-1.26,7,7,0,0,1,3.53-2.92c.34-.13.69-.26,1-.36l1-.28a6.94,6.94,0,0,0,1.62-.73,6.5,6.5,0,0,0,2.39-2.62,6.71,6.71,0,0,0,.58-3.64,13.81,13.81,0,0,0-.86-3.89,10.5,10.5,0,0,1,1.75,3.75,7.3,7.3,0,0,1-.15,4.33,7.46,7.46,0,0,1-2.76,3.51,8.19,8.19,0,0,1-2,1l-1,.3c-.3.09-.59.21-.87.32a5.62,5.62,0,0,0-2.72,2,2.13,2.13,0,0,0,.59,2.7,8.63,8.63,0,0,0,3.26,1.85A19.32,19.32,0,0,0,279.94,162Z"/><path class="cls-15" d="M246.53,204.57h0a27.12,27.12,0,0,0-24.31,15.07l-23.75,58.78-35.91-49.1-19.36,5.2,34.53,58.53c10.11,14.21,22.56,22.88,41.23-.17l26.32-37.65Z"/><path class="cls-15" d="M321.91,204.57h0a27.14,27.14,0,0,1,24.31,15.07l20,86.26H337.47l-14.32-50.67Z"/><path class="cls-15" d="M280.53,204.57H241.06a16.81,16.81,0,0,0-15.51,23.3l28.14,78h64.86l26.2-79.16a16.27,16.27,0,0,0-15.17-22.17Z"/><path class="cls-15" d="M329.2,231.92l5.89,17.32a16.56,16.56,0,0,1-15.68,21.89H250.54A15.89,15.89,0,0,1,236,248.87l7.42-17Z"/><path class="cls-7" d="M297.11,204.57h0a10.44,10.44,0,0,1-8.44,16.6H275a10.45,10.45,0,0,1-9.39-15l.77-1.57S288,192,297.11,204.57Z"/><polygon class="cls-11" points="152.38 222.57 143.2 214.14 133.85 213.23 125.25 215.05 137.64 218.67 143.2 226.66 152.38 222.57"/><polygon class="cls-14" points="162.56 229.32 147.41 219.28 118.08 217.46 105.16 204.57 105.16 213.17 118.08 229.32 143.2 234.52 162.56 229.32"/><path class="cls-12" d="M312.89,138.74a45,45,0,0,0-4.28-1.75,14.2,14.2,0,0,0-4.06-.78,10.2,10.2,0,0,0-4,.63,17.25,17.25,0,0,0-2,.84c-.7.31-1.34.74-2.14,1.06a12,12,0,0,1,1.3-2.12,9.06,9.06,0,0,1,1.9-1.69,8.23,8.23,0,0,1,5-1.45,9.49,9.49,0,0,1,4.92,1.59A9.39,9.39,0,0,1,312.89,138.74Z"/><path class="cls-12" d="M268.25,138.74A45,45,0,0,0,264,137a14.2,14.2,0,0,0-4.06-.78,10.2,10.2,0,0,0-4,.63,17.25,17.25,0,0,0-2,.84c-.7.31-1.34.74-2.13,1.06a11.34,11.34,0,0,1,1.29-2.12,9.06,9.06,0,0,1,1.9-1.69,8.25,8.25,0,0,1,5-1.45,9.55,9.55,0,0,1,4.93,1.59A9.44,9.44,0,0,1,268.25,138.74Z"/><path class="cls-12" d="M274.75,176.3a10.45,10.45,0,0,0,5.55.63,16.68,16.68,0,0,0,5.33-1.59,14.56,14.56,0,0,0,4.37-3.27,12.69,12.69,0,0,0,2.61-4.67l.93,1A56.41,56.41,0,0,1,288,169.5c-1.87.25-3.75.45-5.64.52a44.75,44.75,0,0,1-5.67-.1,29.14,29.14,0,0,1-5.57-1c1.89,0,3.74-.05,5.59-.14s3.7-.25,5.53-.44,3.68-.4,5.51-.66,3.67-.53,5.47-.84l1.36-.23-.42,1.25A13.47,13.47,0,0,1,291,173a14.76,14.76,0,0,1-4.93,3.29,16.36,16.36,0,0,1-5.71,1.25A10.22,10.22,0,0,1,274.75,176.3Z"/><ellipse class="cls-4" cx="268.77" cy="172.51" rx="4.85" ry="2.82"/><path class="cls-16" d="M335.63,257.73l-10.16-29.59,1.65,7.46a36.73,36.73,0,0,1-8.24,15.86c-9.58,10.71-22.47,12-25.63,12.25l-23.12-2.29a29.65,29.65,0,0,1-26.73-29.5h0c-7,20.06-6.88,26.18-6.88,26.18A16.56,16.56,0,0,0,252.2,280h61.87l4.85,25.91L328.76,278A15.91,15.91,0,0,0,335.63,257.73Z"/><path class="cls-12" d="M303.76,99s-15.13,20.91-53.53,23.27c-11.53.71-10.42-8.79-10.42-8.79a19.57,19.57,0,0,0,3.68-.27c9.37-1.56,12.5-9,20.41-15.16,1.79-1.41,13.34-10.44,25.63-8C296.57,91.44,301.34,96.12,303.76,99Z"/><rect class="cls-12" x="368.53" y="45.33" width="177.18" height="113.02" rx="26.53"/><path class="cls-12" d="M402.66,158.07c-12.38,7.16-25.18,13.43-37.41,17.53a3.67,3.67,0,0,1-4.32-5.4c5.89-9.54,15.25-24.1,17.56-24l18.18,5.68C403.52,152,402.66,158.07,402.66,158.07Z"/><rect class="cls-7" x="377.17" y="60.34" width="152.27" height="16.55" rx="8.28"/><rect class="cls-7" x="377.17" y="88.39" width="125.83" height="9.24" rx="4.62"/><rect class="cls-7" x="377.17" y="106.54" width="145.88" height="9.24" rx="4.62"/><rect class="cls-7" x="377.17" y="124.7" width="104.31" height="9.94" rx="4.97"/><circle class="cls-12" cx="88.03" cy="301.39" r="34.37" transform="translate(-187.33 150.52) rotate(-45)"/><polygon class="cls-12" points="119.81 294.2 133.85 271.13 99.37 283.8 119.81 294.2"/><path class="cls-7" d="M84.42,309.48,84.31,308c-.33-3,.67-6.26,3.44-9.59,2.49-2.94,3.88-5.1,3.88-7.59,0-2.83-1.78-4.71-5.27-4.77a9.85,9.85,0,0,0-5.59,1.72l-1.33-3.49a14.51,14.51,0,0,1,7.92-2.22c6.37,0,9.26,3.94,9.26,8.15,0,3.77-2.11,6.48-4.77,9.64-2.44,2.88-3.33,5.32-3.16,8.15l.06,1.44Zm-1.22,7.76a3.29,3.29,0,0,1,3.33-3.5,3.47,3.47,0,1,1-3.33,3.5Z"/><path class="cls-2" d="M278.44,322.82a11.48,11.48,0,0,1,1.57.88,2,2,0,0,0-.07-.23,1.29,1.29,0,0,0-.23-.39l.12.07.17.12.08.05a2.37,2.37,0,0,1,.49.41,2.13,2.13,0,0,1,.3.42l0,0v0a5.59,5.59,0,0,1,2.95,2l.32.16a2.77,2.77,0,0,1,.58.44,3.76,3.76,0,0,0,1.14.75A6.89,6.89,0,0,0,278.44,322.82Z"/><path class="cls-2" d="M284.42,334.11l.07-.08.1-.11.07-.09.09-.12.07-.08.09-.13.06-.08.09-.14.05-.08c0-.05.07-.11.11-.17l0,0,.12-.23,0,0a1.24,1.24,0,0,0,.1-.2l0-.07.07-.16,0-.09.06-.15,0-.09a.88.88,0,0,0,.05-.15.3.3,0,0,0,0-.1.88.88,0,0,1,.05-.15l0-.09c0-.06,0-.11,0-.16l0-.09a1,1,0,0,1,0-.17.29.29,0,0,1,0-.09l0-.18s0,0,0-.07,0-.16,0-.24v0h0a5.52,5.52,0,0,0,.06-.81,3.43,3.43,0,0,1-.56.22h-.08l-.25.06-.08,0h-.05a.21.21,0,0,1-.19-.08h0l0,0a5.31,5.31,0,0,1-.11.8v.07a.83.83,0,0,1,0,.15v.05c0,.07,0,.13-.05.2l0,0a.88.88,0,0,1-.05.15s0,.05,0,.08l0,.11,0,.09,0,.1,0,.09a.47.47,0,0,1-.05.1.36.36,0,0,1,0,.09l0,.09-.05.09-.05.09-.05.09-.06.09,0,.08-.07.11-.05.06a1.63,1.63,0,0,1-.11.17l-.05.06a.86.86,0,0,1-.07.1l-.06.07-.07.09-.07.07-.07.09-.07.07-.07.08a.23.23,0,0,0-.07.07l-.08.07-.07.07-.09.08-.07.06-.09.08-.07.05-.12.1,0,0-.17.12-.06,0-.12.08-.07,0a.41.41,0,0,0-.11.07l-.08,0-.11.06-.08,0-.11.06-.09,0-.11.05-.09,0-.12.05-.08,0-.14.05-.07,0-.21.07-.18,0h0a5.46,5.46,0,0,1-1.32.19h0a5.68,5.68,0,0,1-.93-.05h0l-.21,0h0l-.21,0h0a6,6,0,0,1-.85-.26h0l-.17-.07-.05,0-.17-.07,0,0a5.29,5.29,0,0,1-.52-.29l0,0-.13-.08-.08-.06-.12-.08a.27.27,0,0,0-.08-.07l-.11-.09-.09-.07-.1-.09-.1-.09-.13-.13-.11-.12-.08-.08-.09-.11a.27.27,0,0,1-.07-.08.94.94,0,0,1-.09-.12.27.27,0,0,1-.07-.08l-.09-.13-.06-.08-.13-.2,0,0a2.12,2.12,0,0,1-.11-.21.25.25,0,0,1,0-.07,1.19,1.19,0,0,1-.08-.16.36.36,0,0,1,0-.09,1,1,0,0,1-.07-.15.36.36,0,0,1,0-.09l-.06-.17,0-.08-.09-.25-.06-.24,0-.07a.85.85,0,0,0,0-.17v-.07c0-.08,0-.16,0-.23v0l0-.2v-.07a1.09,1.09,0,0,1,0-.18v-.6a1.09,1.09,0,0,1,0-.18v-.06l0-.22a.17.17,0,0,0,0-.07l0-.15a.29.29,0,0,1,0-.09l0-.16s0-.05,0-.07a1.46,1.46,0,0,1,.05-.2l0-.09a.93.93,0,0,1,0-.13l0-.09a.58.58,0,0,1,.05-.14c0-.05,0-.09.05-.13a1.12,1.12,0,0,0,.05-.13l0-.1.05-.1.05-.11.06-.12.09-.15.05-.09.07-.11.05-.08.07-.1.09-.13.1-.13.06-.08.08-.09.06-.08.15-.16a.46.46,0,0,1,.07-.07l.09-.09a5.83,5.83,0,0,1,1.91-1.26,16.71,16.71,0,0,0-1.87-.37l-.41.32h0c-.15.11-.28.24-.42.36v0l-.17.17,0,0-.15.17,0,0-.14.16,0,0a1,1,0,0,0-.13.16l0,.05-.12.15,0,.06a.91.91,0,0,0-.11.16l0,.05-.1.17,0,.05-.09.17,0,.06a1.62,1.62,0,0,0-.1.18l0,0a1.14,1.14,0,0,0-.1.19l0,0-.09.22v0a6.28,6.28,0,0,0-.25.73l0,.06a1.33,1.33,0,0,1,0,.19s0,0,0,.08a1,1,0,0,0,0,.17s0,.06,0,.09l0,.16s0,.07,0,.1a1,1,0,0,0,0,.16s0,.07,0,.1,0,.1,0,.15,0,.08,0,.11,0,.1,0,.15V330a.76.76,0,0,1,0,.15s0,.07,0,.11,0,.1,0,.15a.37.37,0,0,0,0,.11c0,.06,0,.11,0,.16s0,.07,0,.11l0,.16s0,.07,0,.1a1.16,1.16,0,0,0,0,.18s0,.05,0,.08.05.18.07.26a6.91,6.91,0,0,0,8.62,4.57l.27-.08.08,0,.18-.07.1,0,.15-.06.1-.05.15-.06.1-.05.14-.07.11-.06.13-.07.1-.06.14-.08.09-.06.14-.09.08-.06.15-.11.06-.05.21-.16,0,0,.18-.15.06-.06.13-.12.07-.07.12-.12.07-.07Z"/><path class="cls-17" d="M288.75,328.11a.45.45,0,0,0-.28,0h0v0a1,1,0,0,0,.23.31,1,1,0,0,0,.24.15h0a.21.21,0,0,1,.15.15.17.17,0,0,1,0,.1.33.33,0,0,0,.06-.19.44.44,0,0,0,0-.2A.5.5,0,0,0,288.75,328.11Z"/><path class="cls-18" d="M289.08,328.76a.21.21,0,0,0-.15-.15h0a1,1,0,0,1-.24-.15,1,1,0,0,1-.23-.31v0h0a.45.45,0,0,1,.28,0v0a.44.44,0,0,0-.21-.25l-.08,0h0l-.08,0a3.79,3.79,0,0,1-1.2-.77h0a2.51,2.51,0,0,0-.58-.45,2.25,2.25,0,0,0,0,1.12,1.51,1.51,0,0,0,.14.35,2.06,2.06,0,0,0,.61.76l.08.06.48.19h0a2.4,2.4,0,0,0,.48.11h.32a.56.56,0,0,0,.17-.09.39.39,0,0,0,.14-.17A.17.17,0,0,0,289.08,328.76Z"/><path class="cls-18" d="M282.92,323.74l0,0a2.16,2.16,0,0,0-.48-.39l-.12-.08a4.75,4.75,0,0,1,.33.59l.41.3.41.32a2.47,2.47,0,0,1-.21-.27S283,323.86,282.92,323.74Z"/><path class="cls-18" d="M282.42,325.41a3.81,3.81,0,0,1-.29-.41,3,3,0,0,1-.2-.45h0a2.35,2.35,0,0,0-.19-.43l0,0a2.5,2.5,0,0,0-.4-.51,1.14,1.14,0,0,0-.11-.11c.08.15.22.73.27.86a1.74,1.74,0,0,0,.16.34,2.24,2.24,0,0,0,.42.54,2.09,2.09,0,0,0,.28.24l.33.2A2.83,2.83,0,0,1,282.42,325.41Z"/><path class="cls-18" d="M281.77,334.93l0-.14s0-.06,0-.1,0-.1,0-.15l0-.08a2.17,2.17,0,0,0-.07-.24,7.89,7.89,0,0,0-1.94-3.3l0,0c-.11-.12-.23-.23-.35-.34a7.74,7.74,0,0,0-1-.78,4.44,4.44,0,0,1-.61.22,4.91,4.91,0,0,1-1.55.21,5.79,5.79,0,0,0,.2,1,5.52,5.52,0,0,0,5.3,3.89h.22V335S281.78,335,281.77,334.93Z"/><path class="cls-17" d="M285,329.79l.19-.08.08,0a2.44,2.44,0,0,0,.85.13,1.73,1.73,0,0,0,.32,0l.32-.07.25-.09,0,0h.06a.29.29,0,0,1,.31.1h0a.25.25,0,0,0,.19.09h.05l.08,0a1.14,1.14,0,0,0,.25-.06h0l0,0a3.66,3.66,0,0,0,.58-.22h0a.22.22,0,0,0,.11-.24h0v0a.41.41,0,0,0-.05-.09h-.06l0,0a.2.2,0,0,1,0,.08h-.24l-.13,0a2.4,2.4,0,0,1-.44-.12h0a2.46,2.46,0,0,1-.45-.25l-.08-.06a2.06,2.06,0,0,1-.61-.76,1.51,1.51,0,0,1-.14-.35,2.25,2.25,0,0,1,0-1.12,2.89,2.89,0,0,0-.63-.26h0a2.41,2.41,0,0,1-.56-.22,2.62,2.62,0,0,1-.7-.54h0a1.14,1.14,0,0,1-.11-.11l-.08-.07a4,4,0,0,0-.66-.48l-.19-.1v0l.05,0,.07.06a.61.61,0,0,0-.24.21,1.17,1.17,0,0,0,0,.11.4.4,0,0,0,0,.19v.05a.24.24,0,0,0,0,.08.43.43,0,0,1,0,.05l-.06-.05-.11-.06a.92.92,0,0,0-.49-.09h-.1l-.16,0-.11,0a.39.39,0,0,0,.08.1l0,0,.07.07h0l.16.15a2.39,2.39,0,0,1-.34-.21l-.13-.09h0l-.16-.14-.09-.1-.05,0a2.62,2.62,0,0,1-.43-.55v0h0a2.11,2.11,0,0,1-.16-.34l0-.09a1.86,1.86,0,0,1-.09.47l0,.07a1.45,1.45,0,0,0,.09,1.2l.09.13a2.45,2.45,0,0,0-.45.74h0a5.15,5.15,0,0,1-2.36,2.8l-.39.19a7.74,7.74,0,0,1,1,.78c.12.11.24.22.35.34l0,0a7.89,7.89,0,0,1,1.94,3.3,2.17,2.17,0,0,1,.07.24l0,.08s0,.1,0,.15,0,.07,0,.1l0,.14s0,.07,0,.1v.05a5.43,5.43,0,0,0,1.33-.21,12.11,12.11,0,0,0,.88-3,2.34,2.34,0,0,1,.2-.58l.08-.13a1,1,0,0,1,.15-.2.33.33,0,0,0,.09-.35,1.24,1.24,0,0,1-.11-.42.9.9,0,0,1,.09-.43A1,1,0,0,0,285,329.79Z"/><path class="cls-14" d="M284.51,326.41a.41.41,0,1,0-.29.24.31.31,0,0,0,.12,0h0l.14-.05h.13A.32.32,0,0,0,284.51,326.41Z"/><path class="cls-17" d="M283.64,324.74l0,0c-.32-.26-.65-.52-1-.75a11.9,11.9,0,0,0-1.87-1.07,12.48,12.48,0,0,0-8.75-.65H272a12.49,12.49,0,0,0-6,4,13.3,13.3,0,0,1,5.4-3.09l.23-.07a13.47,13.47,0,0,1,9.59.9l.15.08h0a1.34,1.34,0,0,0,0-.2,2.47,2.47,0,0,0-.15-.46.57.57,0,0,1,.11.11l.09.09,0,0a2.35,2.35,0,0,1,.41.53l0,0a1.86,1.86,0,0,1,.1.2,14.06,14.06,0,0,1,1.31.86l.13.1h0v0a.07.07,0,0,1,0,0h0a.58.58,0,0,1,0-.19.37.37,0,0,1,0-.11.55.55,0,0,1,.23-.2Z"/><path class="cls-17" d="M281.14,324h0a14.63,14.63,0,0,0-9.62-.45l-.18.06a14.61,14.61,0,0,0-6.53,4.17.41.41,0,0,0-.05.09,16,16,0,0,1,6.15-3.43l.25-.07a16.1,16.1,0,0,1,9.51.25l.48.18a.88.88,0,0,1,.05-.15.64.64,0,0,0,0-.07v0a1.27,1.27,0,0,0,.08-.48h0Z"/><path class="cls-17" d="M283.4,325.42s0,0,0-.06h0l-.13-.1a14.06,14.06,0,0,0-1.31-.86,2.44,2.44,0,0,1,.1.24h0a2.67,2.67,0,0,0,.2.46,2.2,2.2,0,0,0,.17.25l.09,0,.17,0h.1a1,1,0,0,1,.49.09l.1.06.07.05Z"/><path class="cls-19" d="M268.44,339.4v1.72h-.61V339.4h-.62v1.72h-.61v-2.34h2.46a.55.55,0,0,1,.61.62v1.72h-.61v-1.59c0-.09,0-.13-.12-.13Z"/><path class="cls-19" d="M272.26,339.52a.11.11,0,0,0-.12-.12h-1.23v-.62h1.35a.55.55,0,0,1,.62.62v1.72h-2.1c-.33,0-.49-.2-.49-.61v-.37a.55.55,0,0,1,.62-.62Zm-1.23.62a.11.11,0,0,0-.12.12v.13a.11.11,0,0,0,.12.12h1.11a.11.11,0,0,0,.12-.12v-.25Z"/><path class="cls-19" d="M273.49,341.12V337.8h.62v1h1.41c.37,0,.56.21.56.62v1.72h-.62v-1.6a.11.11,0,0,0-.12-.12h-1.23v1.72Z"/><path class="cls-19" d="M278.66,339.52a.11.11,0,0,0-.12-.12h-1.23v-.62h1.35a.55.55,0,0,1,.62.62v1.72h-2.09c-.33,0-.5-.2-.5-.61v-.37a.55.55,0,0,1,.62-.62Zm-1.23.62a.11.11,0,0,0-.12.12v.13a.11.11,0,0,0,.12.12h1.11a.11.11,0,0,0,.12-.12v-.25Z"/><path class="cls-19" d="M282.74,340.39a.11.11,0,0,0,.12.12h1.85v.61h-2a.54.54,0,0,1-.62-.61V339.4a.55.55,0,0,1,.62-.62h2v.62h-1.85a.11.11,0,0,0-.12.12Z"/><path class="cls-19" d="M285.94,341.12a.54.54,0,0,1-.61-.61V339.4a.54.54,0,0,1,.61-.62h1.36c.37,0,.58.21.61.62v1.11c0,.41-.18.61-.55.61Zm.13-.61h1.1c.09,0,.13,0,.13-.12v-.87a.11.11,0,0,0-.12-.12h-1.11c-.09,0-.13,0-.13.12v.87C285.94,340.47,286,340.51,286.07,340.51Z"/><path class="cls-19" d="M290.5,338.78v-1h.62v3.32h-2a.54.54,0,0,1-.62-.61V339.4c0-.41.19-.62.55-.62Zm0,.62h-1.23a.11.11,0,0,0-.12.12v.87a.11.11,0,0,0,.12.12h1.23Z"/><path class="cls-19" d="M292.35,340.39a.11.11,0,0,0,.12.12h1.24v.61h-1.36a.55.55,0,0,1-.62-.61V339.4a.55.55,0,0,1,.62-.62h1.48c.33,0,.49.21.49.62v.37a.54.54,0,0,1-.61.62Zm1.24-.62a.11.11,0,0,0,.12-.12v-.13a.11.11,0,0,0-.12-.12h-1.12a.11.11,0,0,0-.12.12v.25Z"/><polygon class="cls-20" points="281.5 338.79 280.84 338.79 279.89 341.12 280.56 341.12 281.5 338.79"/><polygon class="cls-20" points="265.98 338.79 265.32 338.79 264.58 339.95 265.32 341.12 265.98 341.12 265.24 339.95 265.98 338.79"/><polygon class="cls-20" points="294.94 338.79 295.6 338.79 296.34 339.95 295.6 341.12 294.94 341.12 295.68 339.95 294.94 338.79"/></svg>